<?xml version="1.0" encoding="UTF-8"?>
<svg version="1.1" xmlns="http://www.w3.org/2000/svg" width="152" height="152">
<path d="M0,0 L152,0 L152,152 L0,152 Z " fill="#E9E7D4" transform="translate(0,0)"/>
<path d="M0,0 L6,0 L6,1 L9,1 L9,2 L10,2 L10,3 L11,3 L11,4 L13,4 L13,5 L14,5 L14,9 L15,9 L15,14 L17,14 L17,15 L19,15 L19,16 L21,16 L21,17 L23,17 L23,18 L24,18 L24,19 L26,19 L26,20 L28,20 L28,21 L29,21 L29,22 L31,22 L31,23 L33,23 L33,24 L35,24 L35,25 L36,25 L36,26 L38,26 L38,27 L39,27 L39,28 L41,28 L41,29 L43,29 L43,30 L46,30 L46,29 L47,29 L47,28 L48,28 L48,27 L51,27 L51,26 L59,26 L59,27 L61,27 L61,28 L62,28 L62,29 L63,29 L63,30 L64,30 L64,31 L65,31 L65,33 L66,33 L66,41 L65,41 L65,43 L64,43 L64,44 L63,44 L63,45 L62,45 L62,46 L61,46 L61,47 L59,47 L59,48 L57,48 L57,82 L59,82 L59,83 L61,83 L61,84 L63,84 L63,86 L64,86 L64,87 L65,87 L65,89 L66,89 L66,97 L65,97 L65,99 L64,99 L64,100 L63,100 L63,101 L62,101 L62,102 L61,102 L61,103 L58,103 L58,104 L50,104 L50,103 L48,103 L48,102 L47,102 L47,103 L45,103 L45,104 L43,104 L43,105 L41,105 L41,106 L39,106 L39,107 L38,107 L38,108 L36,108 L36,109 L35,109 L35,110 L33,110 L33,111 L31,111 L31,112 L29,112 L29,113 L27,113 L27,114 L26,114 L26,115 L24,115 L24,116 L23,116 L23,117 L21,117 L21,118 L19,118 L19,119 L17,119 L17,120 L16,120 L16,121 L15,121 L15,127 L14,127 L14,129 L13,129 L13,131 L12,131 L12,132 L11,132 L11,133 L9,133 L9,134 L6,134 L6,135 L0,135 L0,134 L-3,134 L-3,133 L-4,133 L-4,132 L-5,132 L-5,130 L-6,130 L-6,129 L-7,129 L-7,126 L-8,126 L-8,119 L-10,119 L-10,118 L-12,118 L-12,117 L-14,117 L-14,116 L-15,116 L-15,115 L-17,115 L-17,114 L-19,114 L-19,113 L-21,113 L-21,112 L-22,112 L-22,111 L-24,111 L-24,110 L-26,110 L-26,109 L-27,109 L-27,108 L-29,108 L-29,107 L-31,107 L-31,106 L-32,106 L-32,105 L-34,105 L-34,104 L-36,104 L-36,103 L-41,103 L-41,104 L-50,104 L-50,103 L-52,103 L-52,101 L-53,101 L-53,100 L-54,100 L-54,99 L-55,99 L-55,97 L-56,97 L-56,89 L-55,89 L-55,87 L-54,87 L-54,86 L-53,86 L-53,84 L-51,84 L-51,83 L-50,83 L-50,82 L-47,82 L-47,48 L-49,48 L-49,47 L-52,47 L-52,46 L-53,46 L-53,44 L-54,44 L-54,43 L-55,43 L-55,41 L-56,41 L-56,32 L-55,32 L-55,30 L-54,30 L-54,29 L-53,29 L-53,28 L-52,28 L-52,27 L-50,27 L-50,26 L-40,26 L-40,27 L-39,27 L-39,28 L-37,28 L-37,29 L-36,29 L-36,30 L-34,30 L-34,29 L-32,29 L-32,28 L-31,28 L-31,27 L-29,27 L-29,26 L-27,26 L-27,25 L-26,25 L-26,24 L-24,24 L-24,23 L-22,23 L-22,22 L-20,22 L-20,21 L-19,21 L-19,20 L-17,20 L-17,19 L-15,19 L-15,18 L-14,18 L-14,17 L-12,17 L-12,16 L-10,16 L-10,15 L-8,15 L-8,9 L-7,9 L-7,7 L-6,7 L-6,4 L-5,4 L-5,3 L-4,3 L-4,2 L-3,2 L-3,1 L0,1 Z " fill="#E8E6D5" transform="translate(72,9)"/>
<path d="M0,0 L6,0 L6,1 L9,1 L9,2 L10,2 L10,3 L11,3 L11,4 L13,4 L13,5 L14,5 L14,9 L15,9 L15,14 L17,14 L17,15 L19,15 L19,16 L21,16 L21,17 L23,17 L23,18 L24,18 L24,19 L26,19 L26,20 L28,20 L28,21 L29,21 L29,22 L31,22 L31,23 L33,23 L33,24 L35,24 L35,25 L36,25 L36,26 L38,26 L38,27 L39,27 L39,28 L41,28 L41,29 L43,29 L43,30 L46,30 L46,29 L47,29 L47,28 L48,28 L48,27 L51,27 L51,26 L59,26 L59,27 L61,27 L61,28 L62,28 L62,29 L63,29 L63,30 L64,30 L64,31 L65,31 L65,33 L66,33 L66,41 L65,41 L65,43 L64,43 L64,44 L63,44 L63,45 L62,45 L62,46 L61,46 L61,47 L59,47 L59,48 L57,48 L57,82 L59,82 L59,83 L61,83 L61,84 L63,84 L63,86 L64,86 L64,87 L65,87 L65,89 L66,89 L66,97 L65,97 L65,99 L64,99 L64,100 L63,100 L63,101 L62,101 L62,102 L61,102 L61,103 L58,103 L58,104 L50,104 L50,103 L48,103 L48,102 L47,102 L47,103 L45,103 L45,104 L43,104 L43,105 L41,105 L41,106 L39,106 L39,107 L38,107 L38,108 L36,108 L36,109 L35,109 L35,110 L33,110 L33,111 L31,111 L31,112 L29,112 L29,113 L27,113 L27,114 L26,114 L26,115 L24,115 L24,116 L23,116 L23,117 L21,117 L21,118 L19,118 L19,119 L17,119 L17,120 L16,120 L16,121 L15,121 L15,127 L14,127 L14,129 L13,129 L13,131 L12,131 L12,132 L11,132 L11,133 L9,133 L9,134 L6,134 L6,135 L0,135 L0,134 L-3,134 L-3,133 L-4,133 L-4,132 L-5,132 L-5,130 L-6,130 L-6,129 L-7,129 L-7,126 L-8,126 L-8,119 L-10,119 L-10,118 L-12,118 L-12,117 L-14,117 L-14,116 L-15,116 L-15,115 L-17,115 L-17,114 L-19,114 L-19,113 L-21,113 L-21,112 L-22,112 L-22,111 L-24,111 L-24,110 L-26,110 L-26,109 L-27,109 L-27,108 L-29,108 L-29,107 L-31,107 L-31,106 L-32,106 L-32,105 L-34,105 L-34,104 L-36,104 L-36,103 L-41,103 L-41,104 L-50,104 L-50,103 L-52,103 L-52,101 L-53,101 L-53,100 L-54,100 L-54,99 L-55,99 L-55,97 L-56,97 L-56,89 L-55,89 L-55,87 L-54,87 L-54,86 L-53,86 L-53,84 L-51,84 L-51,83 L-50,83 L-50,82 L-47,82 L-47,48 L-49,48 L-49,47 L-52,47 L-52,46 L-53,46 L-53,44 L-54,44 L-54,43 L-55,43 L-55,41 L-56,41 L-56,32 L-55,32 L-55,30 L-54,30 L-54,29 L-53,29 L-53,28 L-52,28 L-52,27 L-50,27 L-50,26 L-40,26 L-40,27 L-39,27 L-39,28 L-37,28 L-37,29 L-36,29 L-36,30 L-34,30 L-34,29 L-32,29 L-32,28 L-31,28 L-31,27 L-29,27 L-29,26 L-27,26 L-27,25 L-26,25 L-26,24 L-24,24 L-24,23 L-22,23 L-22,22 L-20,22 L-20,21 L-19,21 L-19,20 L-17,20 L-17,19 L-15,19 L-15,18 L-14,18 L-14,17 L-12,17 L-12,16 L-10,16 L-10,15 L-8,15 L-8,9 L-7,9 L-7,7 L-6,7 L-6,4 L-5,4 L-5,3 L-4,3 L-4,2 L-3,2 L-3,1 L0,1 Z M13,18 L13,19 L11,19 L11,20 L10,20 L10,21 L9,21 L9,22 L6,22 L6,23 L0,23 L0,22 L-2,22 L-2,21 L-3,21 L-3,20 L-4,20 L-4,19 L-9,19 L-9,20 L-10,20 L-10,21 L-12,21 L-12,22 L-14,22 L-14,23 L-15,23 L-15,24 L-17,24 L-17,25 L-18,25 L-18,26 L-19,26 L-19,27 L-22,27 L-22,28 L-24,28 L-24,29 L-26,29 L-26,30 L-27,30 L-27,31 L-29,31 L-29,32 L-32,32 L-32,33 L-33,33 L-33,40 L-32,40 L-32,41 L-30,41 L-30,42 L-29,42 L-29,43 L-27,43 L-27,44 L-26,44 L-26,45 L-24,45 L-24,46 L-22,46 L-22,47 L-20,47 L-20,48 L-19,48 L-19,49 L-17,49 L-17,50 L-16,50 L-16,51 L-12,51 L-12,56 L-15,56 L-15,55 L-16,55 L-16,54 L-18,54 L-18,53 L-20,53 L-20,52 L-22,52 L-22,51 L-23,51 L-23,50 L-24,50 L-24,49 L-26,49 L-26,48 L-28,48 L-28,47 L-30,47 L-30,46 L-32,46 L-32,44 L-37,44 L-37,45 L-38,45 L-38,46 L-39,46 L-39,47 L-40,47 L-40,48 L-43,48 L-43,82 L-40,82 L-40,83 L-39,83 L-39,84 L-38,84 L-38,85 L-34,85 L-34,84 L-32,84 L-32,83 L-31,83 L-31,82 L-29,82 L-29,85 L-30,85 L-30,87 L-31,87 L-31,88 L-34,88 L-34,100 L-33,100 L-33,101 L-31,101 L-31,102 L-29,102 L-29,103 L-28,103 L-28,104 L-26,104 L-26,105 L-24,105 L-24,106 L-23,106 L-23,107 L-21,107 L-21,108 L-19,108 L-19,109 L-18,109 L-18,110 L-16,110 L-16,111 L-14,111 L-14,112 L-12,112 L-12,113 L-10,113 L-10,114 L-8,114 L-8,115 L-7,115 L-7,116 L-4,116 L-4,115 L-2,115 L-2,114 L-1,114 L-1,113 L1,113 L1,112 L6,112 L6,113 L9,113 L9,114 L10,114 L10,115 L11,115 L11,116 L12,116 L12,117 L15,117 L15,116 L17,116 L17,115 L18,115 L18,114 L20,114 L20,113 L21,113 L21,112 L23,112 L23,111 L24,111 L24,110 L26,110 L26,109 L28,109 L28,108 L30,108 L30,107 L32,107 L32,106 L33,106 L33,105 L35,105 L35,104 L37,104 L37,103 L38,103 L38,102 L40,102 L40,101 L41,101 L41,100 L44,100 L44,96 L43,96 L43,89 L42,89 L42,88 L40,88 L40,87 L39,87 L39,84 L38,84 L38,82 L40,82 L40,83 L41,83 L41,84 L42,84 L42,85 L44,85 L44,86 L47,86 L47,84 L48,84 L48,83 L49,83 L49,82 L52,82 L52,48 L50,48 L50,47 L48,47 L48,46 L46,46 L46,45 L43,45 L43,46 L41,46 L41,47 L40,47 L40,48 L38,48 L38,49 L36,49 L36,50 L34,50 L34,51 L32,51 L32,52 L31,52 L31,53 L29,53 L29,54 L27,54 L27,55 L25,55 L25,56 L24,56 L24,57 L22,57 L22,52 L24,52 L24,51 L26,51 L26,50 L28,50 L28,49 L29,49 L29,48 L31,48 L31,47 L32,47 L32,46 L34,46 L34,45 L36,45 L36,44 L38,44 L38,43 L40,43 L40,42 L42,42 L42,41 L43,41 L43,34 L41,34 L41,33 L40,33 L40,32 L38,32 L38,31 L37,31 L37,30 L35,30 L35,29 L33,29 L33,28 L31,28 L31,27 L29,27 L29,26 L28,26 L28,25 L26,25 L26,24 L24,24 L24,23 L23,23 L23,22 L21,22 L21,21 L19,21 L19,20 L18,20 L18,19 L16,19 L16,18 Z " fill="#515C71" transform="translate(72,9)"/>
<path d="M0,0 L2,0 L2,3 L24,3 L24,5 L25,5 L25,6 L27,6 L27,8 L28,8 L28,25 L27,25 L27,27 L26,27 L26,29 L25,29 L25,30 L24,30 L24,36 L25,36 L25,37 L26,37 L26,38 L27,38 L27,39 L30,39 L30,40 L31,40 L31,41 L33,41 L33,42 L35,42 L35,43 L37,43 L37,44 L39,44 L39,45 L40,45 L40,46 L42,46 L42,47 L43,47 L43,49 L44,49 L44,51 L45,51 L45,59 L43,59 L43,60 L42,60 L42,61 L40,61 L40,62 L38,62 L38,63 L36,63 L36,64 L32,64 L32,65 L28,65 L28,66 L26,66 L26,67 L24,67 L24,68 L7,68 L7,67 L3,67 L3,66 L0,66 L0,65 L-4,65 L-4,64 L-6,64 L-6,63 L-8,63 L-8,62 L-10,62 L-10,61 L-12,61 L-12,60 L-14,60 L-14,59 L-16,59 L-16,53 L-15,53 L-15,50 L-14,50 L-14,47 L-13,47 L-13,46 L-11,46 L-11,45 L-10,45 L-10,44 L-9,44 L-9,43 L-8,43 L-8,42 L-6,42 L-6,41 L-4,41 L-4,40 L-1,40 L-1,39 L2,39 L2,38 L3,38 L3,37 L5,37 L5,36 L6,36 L6,32 L5,32 L5,30 L4,30 L4,28 L3,28 L3,25 L2,25 L2,15 L1,15 L1,14 L0,14 Z " fill="#4B5971" transform="translate(62,42)"/>
<path d="M0,0 L1,0 L1,5 L2,5 L2,6 L3,6 L3,7 L4,7 L4,8 L7,8 L7,9 L8,9 L8,10 L10,10 L10,11 L12,11 L12,12 L14,12 L14,13 L16,13 L16,14 L17,14 L17,15 L19,15 L19,16 L20,16 L20,18 L21,18 L21,20 L22,20 L22,28 L20,28 L20,29 L19,29 L19,30 L17,30 L17,31 L15,31 L15,32 L13,32 L13,33 L9,33 L9,34 L5,34 L5,35 L3,35 L3,36 L1,36 L1,37 L-16,37 L-16,36 L-20,36 L-20,35 L-23,35 L-23,34 L-27,34 L-27,33 L-29,33 L-29,32 L-31,32 L-31,31 L-33,31 L-33,30 L-35,30 L-35,29 L-37,29 L-37,28 L-39,28 L-39,22 L-38,22 L-38,19 L-37,19 L-37,16 L-36,16 L-36,15 L-35,15 L-35,19 L-34,19 L-34,20 L-35,20 L-35,21 L-37,21 L-37,25 L-36,25 L-36,26 L-33,26 L-33,27 L-29,27 L-29,28 L-27,28 L-27,29 L-26,29 L-26,33 L-24,33 L-24,32 L-25,32 L-25,31 L-24,31 L-24,28 L-23,28 L-23,27 L-22,27 L-22,29 L-23,29 L-23,30 L-22,30 L-22,32 L-21,32 L-21,33 L-17,33 L-17,32 L-13,32 L-13,27 L-12,27 L-12,20 L-11,20 L-11,18 L-10,18 L-10,13 L-11,13 L-11,12 L-12,12 L-12,8 L-11,8 L-11,7 L-10,7 L-10,6 L-6,6 L-6,7 L-5,7 L-5,8 L-4,8 L-4,5 L-3,5 L-3,7 L-1,7 L-1,5 L0,5 Z " fill="#556073" transform="translate(85,73)"/>
<path d="M0,0 L8,0 L8,1 L10,1 L10,2 L11,2 L11,5 L12,5 L12,16 L10,16 L10,17 L7,17 L7,18 L8,18 L8,20 L5,20 L5,21 L3,21 L3,20 L1,20 L1,19 L0,19 L0,18 L-3,18 L-3,16 L-5,16 L-5,15 L-3,15 L-3,14 L-4,14 L-4,13 L-3,13 L-3,11 L-5,11 L-5,6 L-2,6 L-2,5 L0,5 L0,4 L-3,4 L-3,3 L-4,3 L-4,2 L-3,2 L-3,1 L0,1 Z " fill="#495974" transform="translate(123,35)"/>
<path d="M0,0 L2,0 L2,1 L3,1 L3,4 L4,4 L4,8 L5,8 L5,11 L8,11 L8,12 L7,12 L7,13 L5,13 L5,14 L3,14 L3,16 L4,16 L4,18 L3,18 L3,19 L0,19 L0,20 L-6,20 L-6,19 L-8,19 L-8,18 L-9,18 L-9,17 L-10,17 L-10,16 L-11,16 L-11,14 L-10,14 L-10,11 L-11,11 L-11,12 L-12,12 L-12,14 L-13,14 L-13,15 L-14,15 L-14,14 L-15,14 L-15,13 L-14,13 L-14,12 L-13,12 L-13,10 L-9,10 L-9,6 L-10,6 L-10,3 L-8,3 L-8,1 L-6,1 L-6,2 L-4,2 L-4,1 L0,1 Z " fill="#495872" transform="translate(78,12)"/>
<path d="M0,0 L1,0 L1,2 L3,2 L3,1 L7,1 L7,2 L10,2 L10,4 L11,4 L11,5 L12,5 L12,7 L13,7 L13,8 L14,8 L14,9 L15,9 L15,13 L10,13 L10,14 L9,14 L9,15 L8,15 L8,17 L5,17 L5,19 L4,19 L4,20 L-4,20 L-4,21 L-6,21 L-6,13 L-5,13 L-5,12 L-3,12 L-3,9 L0,9 L0,7 L-1,7 L-1,2 L-2,2 L-2,1 L0,1 Z M0,2 L0,3 L1,3 L1,2 Z " fill="#485873" transform="translate(88,86)"/>
<path d="M0,0 L2,0 L2,1 L1,1 L1,3 L2,3 L2,4 L1,4 L1,5 L0,5 L0,4 L-1,4 L-1,6 L0,6 L0,7 L-1,7 L-1,9 L14,9 L14,10 L10,10 L10,11 L9,11 L9,10 L2,10 L2,11 L0,11 L0,10 L-2,10 L-2,8 L-3,8 L-3,6 L-2,6 L-2,5 L-5,5 L-5,7 L-8,7 L-8,8 L-7,8 L-7,11 L-8,11 L-8,12 L-11,12 L-11,11 L-14,11 L-14,14 L-15,14 L-15,15 L-19,15 L-19,18 L-18,18 L-18,17 L-15,17 L-15,18 L-16,18 L-16,19 L-17,19 L-17,23 L-20,23 L-20,24 L-21,24 L-21,23 L-23,23 L-23,24 L-24,24 L-24,26 L-25,26 L-25,30 L-28,30 L-28,28 L-29,28 L-29,29 L-31,29 L-31,30 L-39,30 L-39,29 L-33,29 L-33,28 L-30,28 L-30,27 L-28,27 L-28,26 L-27,26 L-27,25 L-26,25 L-26,23 L-25,23 L-25,21 L-24,21 L-24,15 L-23,15 L-23,14 L-22,14 L-22,13 L-20,13 L-20,12 L-18,12 L-18,11 L-16,11 L-16,10 L-15,10 L-15,9 L-13,9 L-13,8 L-12,8 L-12,7 L-10,7 L-10,6 L-8,6 L-8,5 L-6,5 L-6,4 L-4,4 L-4,3 L-3,3 L-3,2 L-1,2 L-1,1 L0,1 Z M-22,24 L-21,24 L-21,25 L-22,25 Z " fill="#E2E1D6" transform="translate(111,115)"/>
<path d="M0,0 L5,0 L5,2 L7,2 L7,3 L6,3 L6,8 L-1,8 L-1,7 L0,7 L0,6 L-2,6 L-2,9 L-3,9 L-3,10 L-4,10 L-4,32 L-3,32 L-3,36 L1,36 L1,37 L0,37 L0,38 L3,38 L3,37 L5,37 L5,36 L6,36 L6,37 L9,37 L9,41 L10,41 L10,42 L9,42 L9,46 L8,46 L8,44 L7,44 L7,45 L4,45 L4,51 L3,51 L3,44 L6,44 L6,43 L7,43 L7,41 L8,41 L8,38 L6,38 L6,39 L5,39 L5,40 L3,40 L3,41 L-1,41 L-1,40 L-2,40 L-2,39 L-3,39 L-3,38 L-6,38 L-6,4 L-3,4 L-3,3 L-2,3 L-2,2 L-1,2 L-1,1 L0,1 Z " fill="#D8DBD4" transform="translate(35,53)"/>
<path d="M0,0 L4,0 L4,1 L5,1 L5,7 L4,7 L4,13 L5,13 L5,17 L6,17 L6,22 L7,22 L7,27 L4,27 L4,28 L0,28 L0,27 L-2,27 L-2,26 L-3,26 L-3,21 L-2,21 L-2,14 L-1,14 L-1,12 L0,12 L0,7 L-1,7 L-1,6 L-2,6 L-2,2 L-1,2 L-1,1 L0,1 Z " fill="#E6E8DE" transform="translate(75,79)"/>
<path d="M0,0 L1,0 L1,4 L2,4 L2,5 L1,5 L1,6 L-1,6 L-1,10 L0,10 L0,11 L3,11 L3,12 L7,12 L7,13 L9,13 L9,14 L10,14 L10,18 L12,18 L12,17 L11,17 L11,16 L12,16 L12,13 L13,13 L13,12 L14,12 L14,14 L13,14 L13,15 L14,15 L14,17 L15,17 L15,18 L19,18 L19,17 L24,17 L24,18 L26,18 L26,19 L30,19 L30,18 L33,18 L33,19 L35,19 L35,18 L36,18 L36,19 L41,19 L41,20 L39,20 L39,21 L37,21 L37,22 L20,22 L20,21 L16,21 L16,20 L13,20 L13,19 L9,19 L9,18 L7,18 L7,17 L5,17 L5,16 L3,16 L3,15 L1,15 L1,14 L-1,14 L-1,13 L-3,13 L-3,7 L-2,7 L-2,4 L-1,4 L-1,1 L0,1 Z " fill="#515F6D" transform="translate(49,88)"/>
<path d="M0,0 L5,0 L5,1 L11,1 L11,2 L5,2 L5,3 L10,3 L10,4 L13,4 L13,6 L12,6 L12,5 L9,5 L9,4 L3,4 L3,5 L0,5 L0,6 L-1,6 L-1,7 L-2,7 L-2,8 L-3,8 L-3,11 L-4,11 L-4,13 L-5,13 L-5,19 L-7,19 L-7,20 L-9,20 L-9,21 L-11,21 L-11,22 L-12,22 L-12,23 L-14,23 L-14,24 L-16,24 L-16,25 L-17,25 L-17,26 L-19,26 L-19,27 L-21,27 L-21,28 L-23,28 L-23,29 L-24,29 L-24,30 L-26,30 L-26,31 L-27,31 L-27,30 L-30,30 L-30,29 L-28,29 L-28,27 L-26,27 L-26,28 L-25,28 L-25,27 L-24,27 L-24,26 L-21,26 L-21,24 L-20,24 L-20,23 L-19,23 L-19,22 L-18,22 L-18,21 L-17,21 L-17,19 L-16,19 L-16,20 L-12,20 L-12,18 L-11,18 L-11,17 L-10,17 L-10,15 L-12,15 L-12,14 L-7,14 L-7,13 L-6,13 L-6,12 L-5,12 L-5,10 L-4,10 L-4,8 L-5,8 L-5,6 L-3,6 L-3,5 L-2,5 L-2,4 L0,4 Z " fill="#DCE0D8" transform="translate(69,5)"/>
<path d="M0,0 L1,0 L1,6 L2,6 L2,7 L4,7 L4,8 L6,8 L6,9 L7,9 L7,10 L9,10 L9,11 L11,11 L11,12 L12,12 L12,13 L14,13 L14,14 L16,14 L16,15 L17,15 L17,16 L19,16 L19,17 L21,17 L21,18 L23,18 L23,19 L25,19 L25,20 L27,20 L27,21 L28,21 L28,22 L31,22 L31,23 L30,23 L30,24 L29,24 L29,25 L28,25 L28,32 L27,32 L27,25 L25,25 L25,24 L23,24 L23,23 L21,23 L21,22 L20,22 L20,21 L18,21 L18,20 L16,20 L16,19 L14,19 L14,18 L13,18 L13,17 L11,17 L11,16 L9,16 L9,15 L8,15 L8,14 L6,14 L6,13 L4,13 L4,12 L3,12 L3,11 L1,11 L1,10 L-1,10 L-1,9 L0,9 Z " fill="#626972" transform="translate(37,103)"/>
<path d="M0,0 L1,0 L1,1 L6,1 L6,2 L7,2 L7,0 L9,0 L9,7 L8,7 L8,9 L5,9 L5,10 L3,10 L3,9 L2,9 L2,7 L1,7 L1,8 L0,8 L0,10 L2,10 L2,12 L0,12 L0,14 L-1,14 L-1,15 L-3,15 L-3,14 L-5,14 L-5,13 L-6,13 L-6,11 L-5,11 L-5,10 L-7,10 L-7,7 L-5,7 L-5,6 L-4,6 L-4,2 L-3,2 L-3,1 L0,1 Z " fill="#475873" transform="translate(26,38)"/>
<path d="M0,0 L2,0 L2,1 L1,1 L1,2 L7,2 L7,3 L8,3 L8,4 L11,4 L11,8 L12,8 L12,10 L14,10 L14,12 L16,12 L16,15 L17,15 L17,16 L19,16 L19,17 L20,17 L20,24 L21,24 L21,28 L19,28 L19,23 L18,23 L18,22 L17,22 L17,21 L15,21 L15,19 L14,19 L14,21 L11,21 L11,22 L10,22 L10,24 L8,24 L8,23 L7,23 L7,22 L9,22 L9,21 L10,21 L10,20 L12,20 L12,12 L11,12 L11,10 L10,10 L10,8 L9,8 L9,7 L7,7 L7,6 L6,6 L6,5 L4,5 L4,4 L2,4 L2,3 L0,3 L0,2 L-2,2 L-2,1 L0,1 Z " fill="#D4D9D2" transform="translate(95,81)"/>
<path d="M0,0 L1,0 L1,34 L3,34 L3,35 L5,35 L5,36 L7,36 L7,38 L8,38 L8,39 L9,39 L9,41 L10,41 L10,49 L9,49 L9,51 L8,51 L8,52 L7,52 L7,53 L6,53 L6,54 L5,54 L5,55 L2,55 L2,56 L1,56 L1,54 L3,54 L3,52 L2,52 L2,51 L5,51 L5,47 L6,47 L6,40 L4,40 L4,38 L3,38 L3,37 L2,37 L2,35 L0,35 Z " fill="#68707A" transform="translate(128,57)"/>
<path d="M0,0 L2,0 L2,1 L3,1 L3,2 L7,2 L7,3 L9,3 L9,4 L10,4 L10,5 L8,5 L8,4 L6,4 L6,3 L3,3 L3,4 L1,4 L1,5 L0,5 L0,6 L-2,6 L-2,7 L-4,7 L-4,8 L-6,8 L-6,9 L-8,9 L-8,10 L-9,10 L-9,11 L-11,11 L-11,12 L-13,12 L-13,13 L-15,13 L-15,14 L-16,14 L-16,15 L-18,15 L-18,10 L-16,10 L-16,9 L-14,9 L-14,8 L-12,8 L-12,7 L-11,7 L-11,6 L-9,6 L-9,5 L-8,5 L-8,4 L-6,4 L-6,3 L-4,3 L-4,2 L-2,2 L-2,1 L0,1 Z " fill="#6E727F" transform="translate(112,51)"/>
<path d="M0,0 L1,0 L1,1 L3,1 L3,2 L4,2 L4,1 L5,1 L5,4 L3,4 L3,3 L2,3 L2,4 L-2,4 L-2,5 L-3,5 L-3,6 L-2,6 L-2,7 L-5,7 L-5,8 L-6,8 L-6,7 L-10,7 L-10,8 L-8,8 L-8,9 L0,9 L0,10 L-10,10 L-10,9 L-18,9 L-18,10 L-19,10 L-19,9 L-21,9 L-21,8 L-20,8 L-20,7 L-23,7 L-23,6 L-21,6 L-21,5 L-19,5 L-19,4 L-17,4 L-17,3 L-16,3 L-16,4 L-14,4 L-14,5 L-6,5 L-6,4 L-3,4 L-3,3 L-2,3 L-2,2 L-1,2 L-1,1 L0,1 Z " fill="#E6E5D2" transform="translate(136,108)"/>
<path d="M0,0 L1,0 L1,2 L2,2 L2,1 L3,1 L3,3 L2,3 L2,4 L1,4 L1,6 L0,6 L0,9 L-1,9 L-1,5 L0,5 L0,4 L-2,4 L-2,7 L-3,7 L-3,9 L-5,9 L-5,11 L-4,11 L-4,35 L-3,35 L-3,36 L-2,36 L-2,39 L-4,39 L-4,38 L-6,38 L-6,4 L-4,4 L-4,3 L-2,3 L-2,2 L-1,2 L-1,1 L0,1 Z " fill="#E1E4DC" transform="translate(135,53)"/>
<path d="M0,0 L2,0 L2,1 L7,1 L7,3 L8,3 L8,13 L9,13 L9,15 L8,15 L8,18 L9,18 L9,17 L10,17 L10,16 L11,16 L11,18 L13,18 L13,19 L11,19 L11,20 L10,20 L10,22 L9,22 L9,26 L8,26 L8,23 L7,23 L7,8 L6,8 L6,6 L4,6 L4,5 L3,5 L3,3 L-19,3 L-19,2 L0,2 Z " fill="#E3E6DC" transform="translate(83,42)"/>
<path d="M0,0 L1,0 L1,3 L0,3 L0,5 L-4,5 L-4,6 L-5,6 L-5,7 L-7,7 L-7,8 L-9,8 L-9,9 L-10,9 L-10,10 L-12,10 L-12,11 L-13,11 L-13,12 L-14,12 L-14,13 L-16,13 L-16,11 L-20,11 L-20,12 L-22,12 L-22,11 L-21,11 L-21,10 L-19,10 L-19,9 L-17,9 L-17,8 L-15,8 L-15,7 L-14,7 L-14,6 L-12,6 L-12,5 L-10,5 L-10,4 L-9,4 L-9,3 L-7,3 L-7,2 L-5,2 L-5,1 L-3,1 L-3,2 L-4,2 L-4,3 L-3,3 L-3,4 L-2,4 L-2,3 L-1,3 L-1,1 L0,1 Z " fill="#5E6471" transform="translate(67,23)"/>
<path d="M0,0 L1,0 L1,1 L4,1 L4,2 L6,2 L6,36 L4,36 L4,35 L5,35 L5,3 L3,3 L3,2 L2,2 L2,4 L4,4 L4,26 L3,26 L3,9 L0,9 Z " fill="#DBDFD3" transform="translate(19,55)"/>
<path d="M0,0 L3,0 L3,1 L6,1 L6,2 L7,2 L7,4 L9,4 L9,11 L8,11 L8,15 L5,15 L5,16 L6,16 L6,18 L4,18 L4,16 L3,16 L3,13 L2,13 L2,11 L3,11 L3,10 L5,10 L5,7 L3,7 L3,2 L1,2 L1,3 L0,3 Z " fill="#485771" transform="translate(125,93)"/>
<path d="M0,0 L1,0 L1,1 L3,1 L3,2 L5,2 L5,3 L6,3 L6,4 L7,4 L7,5 L9,5 L9,6 L11,6 L11,7 L13,7 L13,8 L14,8 L14,9 L17,9 L17,12 L16,12 L16,10 L14,10 L14,11 L15,11 L15,15 L13,15 L13,14 L14,14 L14,12 L11,12 L11,16 L9,16 L9,14 L7,14 L7,13 L8,13 L8,12 L7,12 L7,10 L6,10 L6,6 L5,6 L5,4 L2,4 L2,2 L0,2 Z " fill="#E5E5D3" transform="translate(43,56)"/>
<path d="M0,0 L1,0 L1,2 L2,2 L2,5 L3,5 L3,6 L2,6 L2,7 L4,7 L4,6 L5,6 L5,7 L6,7 L6,8 L9,8 L9,9 L13,9 L13,10 L17,10 L17,11 L18,11 L18,13 L17,13 L17,14 L16,14 L16,15 L18,15 L18,14 L19,14 L19,16 L20,16 L20,17 L22,17 L22,19 L21,19 L21,18 L19,18 L19,17 L17,17 L17,16 L15,16 L15,15 L14,15 L14,14 L12,14 L12,13 L10,13 L10,12 L9,12 L9,11 L7,11 L7,10 L5,10 L5,9 L3,9 L3,8 L1,8 L1,3 L0,3 Z " fill="#DCDDD7" transform="translate(86,15)"/>
<path d="M0,0 L1,0 L1,13 L2,13 L2,14 L3,14 L3,24 L4,24 L4,27 L5,27 L5,29 L6,29 L6,31 L7,31 L7,35 L6,35 L6,36 L4,36 L4,37 L3,37 L3,30 L4,30 L4,28 L3,28 L3,26 L2,26 L2,24 L0,24 L0,22 L1,22 L1,21 L0,21 L0,20 L-1,20 L-1,19 L2,19 L2,15 L1,15 L1,14 L0,14 L0,15 L-1,15 L-1,13 L0,13 Z " fill="#C7C9C8" transform="translate(61,43)"/>
<path d="M0,0 L7,0 L7,4 L8,4 L8,5 L10,5 L10,4 L12,4 L12,5 L11,5 L11,6 L14,6 L14,7 L13,7 L13,8 L11,8 L11,9 L8,9 L8,8 L7,8 L7,7 L5,7 L5,6 L3,6 L3,5 L1,5 L1,4 L-1,4 L-1,3 L-3,3 L-3,2 L-4,2 L-4,1 L-2,1 L-2,2 L-1,2 L-1,1 L0,1 Z " fill="#E7E8D0" transform="translate(57,116)"/>
<path d="M0,0 L2,0 L2,1 L3,1 L3,4 L5,4 L5,5 L6,5 L6,6 L8,6 L8,5 L10,5 L10,7 L9,7 L9,8 L11,8 L11,10 L10,10 L10,9 L8,9 L8,10 L9,10 L9,11 L10,11 L10,12 L8,12 L8,11 L7,11 L7,10 L5,10 L5,9 L4,9 L4,8 L2,8 L2,7 L0,7 L0,6 L-2,6 L-2,5 L-3,5 L-3,4 L-5,4 L-5,3 L-3,3 L-3,2 L-1,2 L-1,1 L0,1 Z " fill="#DBE0D5" transform="translate(48,48)"/>
<path d="M0,0 L11,0 L11,1 L3,1 L3,2 L1,2 L1,3 L0,3 L0,4 L-1,4 L-1,5 L-2,5 L-2,7 L-3,7 L-3,16 L-2,16 L-2,18 L-1,18 L-1,19 L0,19 L0,21 L-1,21 L-1,22 L-2,22 L-2,24 L-3,24 L-3,21 L-4,21 L-4,18 L-3,18 L-3,17 L-4,17 L-4,6 L-5,6 L-5,8 L-7,8 L-7,5 L-5,5 L-5,3 L-4,3 L-4,2 L-3,2 L-3,1 L0,1 Z " fill="#E4E3DB" transform="translate(19,34)"/>
<path d="M0,0 L10,0 L10,1 L12,1 L12,0 L13,0 L13,3 L14,3 L14,2 L16,2 L16,3 L19,3 L19,11 L18,11 L18,14 L17,14 L17,16 L18,16 L18,18 L17,18 L17,17 L15,17 L15,16 L16,16 L16,8 L15,8 L15,6 L14,6 L14,5 L13,5 L13,4 L12,4 L12,3 L11,3 L11,2 L9,2 L9,1 L1,1 L1,2 L-1,2 L-1,1 L0,1 Z " fill="#D6D8D2" transform="translate(122,34)"/>
<path d="M0,0 L2,0 L2,1 L1,1 L1,3 L2,3 L2,4 L1,4 L1,5 L0,5 L0,4 L-1,4 L-1,6 L0,6 L0,7 L-1,7 L-1,9 L14,9 L14,10 L10,10 L10,11 L9,11 L9,10 L2,10 L2,11 L0,11 L0,10 L-2,10 L-2,8 L-3,8 L-3,6 L-2,6 L-2,5 L-5,5 L-5,7 L-8,7 L-8,8 L-7,8 L-7,10 L-10,10 L-10,9 L-9,9 L-9,8 L-11,8 L-11,9 L-13,9 L-13,8 L-12,8 L-12,7 L-10,7 L-10,6 L-8,6 L-8,5 L-6,5 L-6,4 L-4,4 L-4,3 L-3,3 L-3,2 L-1,2 L-1,1 L0,1 Z " fill="#D7D9CB" transform="translate(111,115)"/>
<path d="M0,0 L1,0 L1,2 L3,2 L3,3 L4,3 L4,4 L5,4 L5,9 L4,9 L4,10 L1,10 L1,9 L3,9 L3,8 L4,8 L4,7 L1,7 L1,8 L0,8 L0,6 L2,6 L2,4 L0,4 L0,5 L-3,5 L-3,7 L-2,7 L-2,11 L-7,11 L-7,9 L-8,9 L-8,8 L-6,8 L-6,7 L-4,7 L-4,3 L-3,3 L-3,2 L0,2 Z " fill="#EBE8D5" transform="translate(109,100)"/>
<path d="M0,0 L1,0 L1,4 L2,4 L2,9 L3,9 L3,14 L0,14 L0,15 L-4,15 L-4,14 L-6,14 L-6,13 L-7,13 L-7,8 L-6,8 L-6,1 L-5,1 L-5,9 L-6,9 L-6,12 L-1,12 L-1,10 L0,10 Z " fill="#C7CCCA" transform="translate(79,92)"/>
<path d="M0,0 L4,0 L4,1 L5,1 L5,7 L4,7 L4,11 L3,11 L3,9 L2,9 L2,12 L1,12 L1,11 L0,11 L0,7 L-1,7 L-1,6 L-2,6 L-2,2 L-1,2 L-1,1 L0,1 Z " fill="#D5D8D4" transform="translate(75,79)"/>
<path d="M0,0 L1,0 L1,1 L2,1 L2,2 L3,2 L3,4 L4,4 L4,12 L3,12 L3,14 L2,14 L2,15 L1,15 L1,16 L0,16 L0,17 L-1,17 L-1,18 L-3,18 L-3,19 L-5,19 L-5,17 L-3,17 L-3,15 L-4,15 L-4,14 L-1,14 L-1,13 L1,13 L1,2 L0,2 Z " fill="#5F6872" transform="translate(134,38)"/>
<path d="M0,0 L3,0 L3,1 L2,1 L2,2 L5,2 L5,1 L7,1 L7,0 L8,0 L8,1 L11,1 L11,5 L12,5 L12,6 L11,6 L11,10 L10,10 L10,8 L9,8 L9,9 L6,9 L6,15 L5,15 L5,8 L8,8 L8,7 L9,7 L9,5 L10,5 L10,2 L8,2 L8,3 L7,3 L7,4 L5,4 L5,5 L1,5 L1,4 L0,4 L0,3 L-1,3 L-1,2 L0,2 Z " fill="#D6DAD5" transform="translate(33,89)"/>
<path d="M0,0 L2,0 L2,2 L1,2 L1,4 L0,4 L0,6 L-1,6 L-1,7 L-2,7 L-2,8 L-4,8 L-4,9 L-7,9 L-7,10 L-13,10 L-13,9 L-16,9 L-16,8 L-17,8 L-17,7 L-15,7 L-15,8 L-13,8 L-13,7 L-14,7 L-14,6 L-12,6 L-12,9 L-10,9 L-10,7 L-8,7 L-8,8 L-6,8 L-6,6 L-5,6 L-5,5 L-4,5 L-4,4 L-3,4 L-3,3 L-2,3 L-2,1 L0,1 Z " fill="#5D6572" transform="translate(85,134)"/>
<path d="M0,0 L2,0 L2,1 L1,1 L1,2 L0,2 L0,3 L2,3 L2,4 L0,4 L0,5 L-2,5 L-2,6 L-4,6 L-4,7 L-5,7 L-5,8 L-7,8 L-7,9 L-8,9 L-8,10 L-11,10 L-11,5 L-9,5 L-9,4 L-4,4 L-4,3 L-3,3 L-3,2 L-2,2 L-2,1 L0,1 Z " fill="#E0E3DB" transform="translate(108,49)"/>
<path d="M0,0 L1,0 L1,1 L2,1 L2,2 L3,2 L3,4 L5,4 L5,5 L14,5 L14,4 L19,4 L19,5 L21,5 L21,6 L23,6 L23,7 L24,7 L24,8 L26,8 L26,9 L24,9 L24,10 L22,10 L22,9 L21,9 L21,8 L14,8 L14,7 L20,7 L20,6 L17,6 L17,5 L15,5 L15,6 L4,6 L4,7 L3,7 L3,5 L2,5 L2,3 L1,3 L1,2 L0,2 Z " fill="#CACDC9" transform="translate(17,108)"/>
<path d="M0,0 L3,0 L3,1 L5,1 L5,0 L6,0 L6,1 L11,1 L11,2 L9,2 L9,3 L7,3 L7,4 L-10,4 L-10,3 L-4,3 L-4,1 L0,1 Z " fill="#6B737A" transform="translate(79,106)"/>
<path d="M0,0 L7,0 L7,1 L6,1 L6,2 L4,2 L4,3 L3,3 L3,4 L1,4 L1,5 L-1,5 L-1,6 L-3,6 L-3,7 L-4,7 L-4,8 L-6,8 L-6,3 L-4,3 L-4,2 L-2,2 L-2,1 L0,1 Z " fill="#5C6368" transform="translate(100,58)"/>
<path d="M0,0 L2,0 L2,1 L1,1 L1,2 L0,2 L0,4 L1,4 L1,5 L2,5 L2,3 L5,3 L5,2 L7,2 L7,5 L8,5 L8,7 L6,7 L6,10 L4,10 L4,8 L3,8 L3,7 L0,7 L0,8 L-2,8 L-2,7 L-1,7 L-1,2 L-2,2 L-2,1 L0,1 Z " fill="#475669" transform="translate(118,102)"/>
<path d="M0,0 L2,0 L2,1 L1,1 L1,3 L-1,3 L-1,4 L-3,4 L-3,5 L-4,5 L-4,8 L-8,8 L-8,9 L-9,9 L-9,10 L-13,10 L-13,9 L-14,9 L-14,8 L-12,8 L-12,7 L-11,7 L-11,6 L-9,6 L-9,5 L-7,5 L-7,4 L-5,4 L-5,3 L-3,3 L-3,2 L-2,2 L-2,1 L0,1 Z " fill="#D4D9D3" transform="translate(115,54)"/>
<path d="M0,0 L1,0 L1,5 L2,5 L2,7 L4,7 L4,8 L1,8 L1,9 L0,9 L0,10 L-1,10 L-1,12 L-4,12 L-4,11 L-6,11 L-6,10 L-7,10 L-7,9 L-8,9 L-8,6 L-6,6 L-6,5 L-5,5 L-5,7 L-3,7 L-3,8 L0,8 L0,7 L1,7 L1,6 L0,6 L0,4 L-1,4 L-1,3 L0,3 Z " fill="#D7DDCF" transform="translate(120,83)"/>
<path d="M0,0 L2,0 L2,1 L1,1 L1,2 L0,2 L0,4 L2,4 L2,5 L0,5 L0,6 L-2,6 L-2,7 L-4,7 L-4,8 L-6,8 L-6,7 L-8,7 L-8,8 L-9,8 L-9,9 L-10,9 L-10,8 L-12,8 L-12,7 L-10,7 L-10,6 L-9,6 L-9,5 L-7,5 L-7,4 L-5,4 L-5,3 L-3,3 L-3,2 L-1,2 L-1,1 L0,1 Z " fill="#5D6272" transform="translate(105,114)"/>
<path d="M0,0 L2,0 L2,1 L1,1 L1,2 L2,2 L2,3 L1,3 L1,7 L2,7 L2,8 L1,8 L1,12 L-1,12 L-1,15 L-2,15 L-2,13 L-3,13 L-3,5 L-2,5 L-2,3 L-1,3 L-1,2 L0,2 Z " fill="#53606C" transform="translate(19,93)"/>
<path d="M0,0 L2,0 L2,1 L1,1 L1,2 L0,2 L0,3 L1,3 L1,4 L2,4 L2,3 L4,3 L4,2 L7,2 L7,3 L5,3 L5,4 L6,4 L6,8 L5,8 L5,9 L4,9 L4,10 L2,10 L2,8 L0,8 L0,6 L-1,6 L-1,3 L-2,3 L-2,2 L-1,2 L-1,1 L0,1 Z " fill="#505E7B" transform="translate(54,84)"/>
<path d="M0,0 L4,0 L4,2 L13,2 L13,3 L10,3 L10,4 L14,4 L14,5 L11,5 L11,6 L5,6 L5,5 L3,5 L3,4 L2,4 L2,3 L1,3 L1,2 L0,2 Z " fill="#535C6B" transform="translate(67,26)"/>
<path d="M0,0 L2,0 L2,6 L3,6 L3,7 L5,7 L5,8 L6,8 L6,9 L8,9 L8,11 L7,11 L7,12 L3,12 L3,10 L1,10 L1,9 L-1,9 L-1,7 L0,7 Z " fill="#646A75" transform="translate(37,43)"/>
<path d="M0,0 L3,0 L3,1 L4,1 L4,2 L5,2 L5,3 L6,3 L6,4 L7,4 L7,2 L9,2 L9,1 L10,1 L10,0 L14,0 L14,1 L12,1 L12,2 L11,2 L11,3 L9,3 L9,4 L8,4 L8,5 L6,5 L6,6 L3,6 L3,5 L2,5 L2,4 L1,4 L1,3 L0,3 L0,2 L-3,2 L-3,1 L0,1 Z " fill="#C9CECF" transform="translate(81,120)"/>
<path d="M0,0 L1,0 L1,1 L3,1 L3,3 L4,3 L4,20 L3,20 L3,4 L1,4 L1,17 L0,17 L0,3 L-1,3 L-1,1 L0,1 Z " fill="#6B7580" transform="translate(86,47)"/>
<path d="M0,0 L8,0 L8,1 L10,1 L10,2 L11,2 L11,3 L10,3 L10,4 L8,4 L8,5 L6,5 L6,4 L4,4 L4,3 L3,3 L3,4 L1,4 L1,3 L-2,3 L-2,2 L-1,2 L-1,1 L0,1 Z " fill="#515E6C" transform="translate(123,35)"/>
<path d="M0,0 L5,0 L5,1 L8,1 L8,2 L9,2 L9,3 L8,3 L8,4 L5,4 L5,6 L1,6 L1,4 L0,4 L0,3 L-1,3 L-1,2 L-2,2 L-2,1 L0,1 Z " fill="#586275" transform="translate(73,121)"/>
<path d="M0,0 L2,0 L2,2 L-1,2 L-1,3 L3,3 L3,4 L2,4 L2,5 L0,5 L0,6 L-1,6 L-1,7 L-2,7 L-2,8 L-4,8 L-4,6 L-8,6 L-8,7 L-10,7 L-10,6 L-9,6 L-9,5 L-7,5 L-7,4 L-5,4 L-5,3 L-3,3 L-3,2 L-2,2 L-2,1 L0,1 Z " fill="#626A74" transform="translate(55,28)"/>
<path d="M0,0 L3,0 L3,1 L4,1 L4,2 L5,2 L5,3 L9,3 L9,2 L11,2 L11,1 L12,1 L12,0 L14,0 L14,3 L13,3 L13,5 L12,5 L12,6 L8,6 L8,5 L5,5 L5,4 L3,4 L3,3 L2,3 L2,1 L0,1 Z " fill="#656D7A" transform="translate(29,91)"/>
<path d="M0,0 L4,0 L4,1 L5,1 L5,2 L8,2 L8,3 L7,3 L7,4 L6,4 L6,5 L5,5 L5,12 L4,12 L4,5 L2,5 L2,4 L0,4 L0,3 L-2,3 L-2,1 L0,1 Z " fill="#62697B" transform="translate(60,123)"/>
<path d="M0,0 L2,0 L2,1 L5,1 L5,2 L6,2 L6,5 L5,5 L5,6 L4,6 L4,5 L3,5 L3,3 L-19,3 L-19,2 L0,2 Z " fill="#C9CFCD" transform="translate(83,42)"/>
<path d="M0,0 L2,0 L2,2 L3,2 L3,5 L2,5 L2,4 L1,4 L1,5 L-1,5 L-1,6 L-4,6 L-4,4 L-5,4 L-5,5 L-7,5 L-7,6 L-11,6 L-11,5 L-9,5 L-9,4 L-6,4 L-6,3 L-3,3 L-3,2 L-2,2 L-2,1 L0,1 Z " fill="#5E6A7A" transform="translate(67,78)"/>
<path d="M0,0 L5,0 L5,2 L7,2 L7,3 L6,3 L6,8 L-1,8 L-1,7 L0,7 L0,6 L2,6 L2,5 L3,5 L3,1 L1,1 L1,2 L0,2 L0,3 L-2,3 L-2,2 L-1,2 L-1,1 L0,1 Z " fill="#E6E8CD" transform="translate(35,53)"/>
<path d="M0,0 L4,0 L4,2 L3,2 L3,3 L1,3 L1,4 L-1,4 L-1,5 L-2,5 L-2,6 L-4,6 L-4,7 L-6,7 L-6,5 L-4,5 L-4,3 L-5,3 L-5,4 L-7,4 L-7,3 L-6,3 L-6,2 L-4,2 L-4,1 L0,1 Z " fill="#5E636E" transform="translate(47,34)"/>
<path d="M0,0 L3,0 L3,1 L4,1 L4,4 L0,4 L0,6 L-2,6 L-2,5 L-3,5 L-3,7 L-5,7 L-5,6 L-7,6 L-7,5 L-8,5 L-8,4 L-6,4 L-6,5 L-4,5 L-4,4 L-5,4 L-5,3 L-3,3 L-3,2 L2,2 L2,1 L0,1 Z " fill="#DCDDCB" transform="translate(56,110)"/>
<path d="M0,0 L2,0 L2,1 L3,1 L3,2 L5,2 L5,3 L7,3 L7,4 L8,4 L8,5 L10,5 L10,6 L8,6 L8,7 L4,7 L4,4 L-2,4 L-2,3 L0,3 L0,2 L-1,2 L-1,1 L0,1 Z " fill="#DCDFD2" transform="translate(43,117)"/>
<path d="M0,0 L2,0 L2,1 L3,1 L3,2 L4,2 L4,3 L5,3 L5,5 L6,5 L6,13 L7,13 L7,18 L6,18 L6,14 L5,14 L5,7 L4,7 L4,6 L2,6 L2,5 L1,5 L1,2 L0,2 Z " fill="#646B6E" transform="translate(110,91)"/>
<path d="M0,0 L2,0 L2,1 L4,1 L4,2 L3,2 L3,3 L2,3 L2,4 L-3,4 L-3,3 L-5,3 L-5,2 L-14,2 L-14,1 L0,1 Z " fill="#DADFD5" transform="translate(86,109)"/>
<path d="M0,0 L1,0 L1,4 L3,4 L3,5 L0,5 L0,8 L-1,8 L-1,9 L-2,9 L-2,10 L-3,10 L-3,8 L-4,8 L-4,11 L-7,11 L-7,10 L-6,10 L-6,9 L-5,9 L-5,7 L-4,7 L-4,5 L-3,5 L-3,3 L-2,3 L-2,6 L-1,6 L-1,2 L0,2 Z " fill="#D3D5CB" transform="translate(93,62)"/>
<path d="M0,0 L1,0 L1,2 L2,2 L2,3 L4,3 L4,2 L6,2 L6,3 L5,3 L5,4 L8,4 L8,5 L7,5 L7,6 L5,6 L5,7 L2,7 L2,6 L1,6 L1,5 L-1,5 L-1,4 L-3,4 L-3,3 L0,3 Z " fill="#CED2C7" transform="translate(63,118)"/>
<path d="M0,0 L1,0 L1,1 L3,1 L3,2 L11,2 L11,3 L5,3 L5,4 L-6,4 L-6,3 L-4,3 L-4,2 L-2,2 L-2,1 L0,1 Z " fill="#C8CAC9" transform="translate(119,111)"/>
<path d="M0,0 L1,0 L1,3 L2,3 L2,5 L3,5 L3,7 L4,7 L4,11 L3,11 L3,12 L1,12 L1,13 L0,13 L0,6 L1,6 L1,4 L0,4 Z " fill="#CCD1CE" transform="translate(64,67)"/>
<path d="M0,0 L3,0 L3,1 L5,1 L5,2 L6,2 L6,3 L8,3 L8,4 L4,4 L4,5 L0,5 L0,4 L2,4 L2,3 L3,3 L3,2 L-1,2 L-1,3 L-2,3 L-2,4 L-3,4 L-3,5 L-7,5 L-7,4 L-4,4 L-4,3 L-3,3 L-3,2 L-2,2 L-2,1 L0,1 Z " fill="#D0D2CC" transform="translate(85,27)"/>
<path d="M0,0 L1,0 L1,7 L-2,7 L-2,5 L-3,5 L-3,6 L-5,6 L-5,7 L-13,7 L-13,6 L-7,6 L-7,5 L-4,5 L-4,4 L-2,4 L-2,3 L-1,3 L-1,2 L0,2 Z " fill="#CFD1CC" transform="translate(85,138)"/>
<path d="M0,0 L2,0 L2,5 L4,5 L4,4 L5,4 L5,6 L4,6 L4,7 L3,7 L3,8 L0,8 L0,9 L-2,9 L-2,7 L1,7 L1,5 L0,5 L0,3 L-3,3 L-3,2 L-2,2 L-2,1 L0,1 Z " fill="#DDDBCB" transform="translate(99,63)"/>
<path d="M0,0 L1,0 L1,3 L2,3 L2,0 L4,0 L4,2 L3,2 L3,10 L4,10 L4,12 L2,12 L2,10 L1,10 L1,5 L0,5 Z " fill="#D3D3CD" transform="translate(13,96)"/>
<path d="M0,0 L1,0 L1,5 L2,5 L2,7 L3,7 L3,9 L0,9 L0,8 L-1,8 L-1,10 L-2,10 L-2,7 L-3,7 L-3,5 L-2,5 L-2,4 L-1,4 L-1,3 L0,3 Z " fill="#4C586B" transform="translate(82,81)"/>
<path d="M0,0 L3,0 L3,2 L4,2 L4,6 L7,6 L7,7 L5,7 L5,8 L3,8 L3,7 L2,7 L2,6 L1,6 L1,5 L0,5 Z " fill="#DCE3DA" transform="translate(86,73)"/>
<path d="M0,0 L3,0 L3,1 L5,1 L5,0 L8,0 L8,1 L9,1 L9,3 L7,3 L7,2 L6,2 L6,3 L4,3 L4,4 L2,4 L2,3 L1,3 L1,2 L-1,2 L-1,1 L0,1 Z " fill="#5E6876" transform="translate(113,109)"/>
<path d="M0,0 L2,0 L2,4 L3,4 L3,5 L2,5 L2,9 L1,9 L1,7 L0,7 L0,8 L-3,8 L-3,14 L-4,14 L-4,7 L-1,7 L-1,6 L0,6 L0,4 L1,4 L1,1 L0,1 Z " fill="#BEC2BF" transform="translate(42,90)"/>
<path d="M0,0 L1,0 L1,4 L2,4 L2,5 L1,5 L1,6 L-1,6 L-1,11 L-2,11 L-2,13 L-3,13 L-3,7 L-2,7 L-2,4 L-1,4 L-1,1 L0,1 Z " fill="#6F777D" transform="translate(49,88)"/>
<path d="M0,0 L1,0 L1,7 L2,7 L2,9 L3,9 L3,10 L4,10 L4,12 L3,12 L3,13 L2,13 L2,15 L1,15 L1,12 L0,12 L0,9 L1,9 L1,8 L0,8 Z " fill="#D0D0CC" transform="translate(15,43)"/>
<path d="M0,0 L5,0 L5,1 L6,1 L6,2 L7,2 L7,3 L9,3 L9,4 L6,4 L6,5 L4,5 L4,4 L5,4 L5,2 L4,2 L4,3 L1,3 L1,4 L0,4 L0,2 L-1,2 L-1,1 L0,1 Z " fill="#D0D3CD" transform="translate(63,28)"/>
<path d="M0,0 L6,0 L6,1 L9,1 L9,2 L5,2 L5,3 L0,3 L0,2 L-2,2 L-2,3 L-4,3 L-4,2 L-3,2 L-3,1 L0,1 Z " fill="#666E77" transform="translate(72,9)"/>
<path d="M0,0 L1,0 L1,1 L3,1 L3,2 L4,2 L4,1 L5,1 L5,4 L3,4 L3,3 L2,3 L2,4 L-2,4 L-2,5 L-6,5 L-6,4 L-3,4 L-3,3 L-2,3 L-2,2 L-1,2 L-1,1 L0,1 Z " fill="#D3D6CC" transform="translate(136,108)"/>
<path d="M0,0 L2,0 L2,2 L3,2 L3,6 L2,6 L2,8 L1,8 L1,7 L-1,7 L-1,2 L0,2 Z " fill="#EAE6D0" transform="translate(76,96)"/>
<path d="M0,0 L1,0 L1,1 L2,1 L2,3 L3,3 L3,4 L4,4 L4,5 L3,5 L3,6 L2,6 L2,8 L1,8 L1,10 L0,10 L0,7 L-1,7 L-1,3 L0,3 L0,4 L1,4 L1,2 L0,2 Z " fill="#D9DCCB" transform="translate(65,138)"/>
<path d="M0,0 L1,0 L1,2 L2,2 L2,4 L1,4 L1,3 L0,3 L0,6 L1,6 L1,8 L0,8 L0,10 L-1,10 L-1,11 L-2,11 L-2,10 L-4,10 L-4,8 L-2,8 L-2,9 L-1,9 L-1,7 L-2,7 L-2,5 L-1,5 L-1,2 L0,2 Z " fill="#EEEBDB" transform="translate(141,99)"/>
<path d="M0,0 L1,0 L1,1 L3,1 L3,2 L5,2 L5,3 L6,3 L6,4 L7,4 L7,5 L9,5 L9,6 L11,6 L11,7 L10,7 L10,8 L9,8 L9,7 L6,7 L6,6 L5,6 L5,4 L2,4 L2,2 L0,2 Z " fill="#C7CBCB" transform="translate(43,56)"/>
<path d="M0,0 L2,0 L2,2 L-1,2 L-1,4 L2,4 L2,5 L0,5 L0,6 L-1,6 L-1,5 L-7,5 L-7,4 L-5,4 L-5,3 L-4,3 L-4,2 L-2,2 L-2,1 L0,1 Z " fill="#6E757C" transform="translate(108,53)"/>
<path d="M0,0 L1,0 L1,2 L0,2 L0,3 L1,3 L1,5 L2,5 L2,6 L0,6 L0,7 L-4,7 L-4,6 L-6,6 L-6,5 L-4,5 L-4,4 L-5,4 L-5,3 L-3,3 L-3,6 L-1,6 L-1,5 L-2,5 L-2,4 L-1,4 L-1,1 L0,1 Z " fill="#58657A" transform="translate(62,100)"/>
<path d="M0,0 L2,0 L2,1 L3,1 L3,3 L5,3 L5,5 L7,5 L7,8 L6,8 L6,7 L5,7 L5,8 L4,8 L4,7 L3,7 L3,5 L2,5 L2,3 L1,3 L1,1 L0,1 Z " fill="#DCE0DC" transform="translate(104,88)"/>
<path d="M0,0 L2,0 L2,1 L3,1 L3,0 L4,0 L4,2 L3,2 L3,3 L4,3 L4,4 L5,4 L5,5 L4,5 L4,6 L1,6 L1,5 L0,5 Z " fill="#E5E3DF" transform="translate(39,44)"/>
<path d="M0,0 L1,0 L1,1 L3,1 L3,2 L5,2 L5,3 L7,3 L7,4 L8,4 L8,5 L10,5 L10,6 L6,6 L6,5 L3,5 L3,3 L0,3 Z " fill="#D5DAD5" transform="translate(102,36)"/>
<path d="M0,0 L7,0 L7,1 L4,1 L4,2 L8,2 L8,3 L5,3 L5,4 L-1,4 L-1,3 L1,3 L1,2 L2,2 L2,1 L0,1 Z " fill="#5E6371" transform="translate(73,28)"/>
<path d="M0,0 L2,0 L2,1 L3,1 L3,2 L4,2 L4,1 L7,1 L7,2 L9,2 L9,4 L3,4 L3,3 L1,3 L1,1 L0,1 Z " fill="#575E65" transform="translate(42,114)"/>
<path d="M0,0 L4,0 L4,1 L1,1 L1,2 L3,2 L3,4 L2,4 L2,3 L-1,3 L-1,4 L-3,4 L-3,3 L-6,3 L-6,2 L-4,2 L-4,1 L0,1 Z " fill="#C7CBCB" transform="translate(94,106)"/>
<path d="M0,0 L2,0 L2,3 L3,3 L3,4 L4,4 L4,5 L5,5 L5,6 L2,6 L2,4 L1,4 L1,7 L-1,7 L-1,3 L0,3 Z " fill="#47556E" transform="translate(85,79)"/>
<path d="M0,0 L1,0 L1,2 L2,2 L2,1 L3,1 L3,3 L2,3 L2,4 L1,4 L1,6 L0,6 L0,9 L-1,9 L-1,5 L0,5 L0,4 L-4,4 L-4,3 L-2,3 L-2,2 L-1,2 L-1,1 L0,1 Z " fill="#D7DCD0" transform="translate(135,53)"/>
<path d="M0,0 L1,0 L1,1 L3,1 L3,2 L5,2 L5,3 L3,3 L3,6 L1,6 L1,5 L-1,5 L-1,4 L-2,4 L-2,3 L-1,3 L-1,2 L0,2 Z " fill="#686A79" transform="translate(102,31)"/>
<path d="M0,0 L4,0 L4,1 L5,1 L5,2 L6,2 L6,4 L5,4 L5,5 L2,5 L2,3 L1,3 L1,2 L0,2 Z " fill="#565F6A" transform="translate(96,29)"/>
<path d="M0,0 L1,0 L1,2 L2,2 L2,5 L3,5 L3,6 L2,6 L2,7 L4,7 L4,6 L5,6 L5,7 L6,7 L6,8 L7,8 L7,10 L5,10 L5,9 L3,9 L3,8 L1,8 L1,3 L0,3 Z " fill="#CED1D3" transform="translate(86,15)"/>
<path d="M0,0 L2,0 L2,3 L1,3 L1,5 L0,5 L0,6 L-4,6 L-4,4 L-2,4 L-2,3 L-1,3 L-1,1 L0,1 Z " fill="#5F6466" transform="translate(41,91)"/>
<path d="M0,0 L2,0 L2,2 L1,2 L1,3 L3,3 L3,5 L2,5 L2,4 L0,4 L0,5 L1,5 L1,6 L2,6 L2,7 L0,7 L0,6 L-1,6 L-1,5 L-3,5 L-3,4 L-1,4 L-1,2 L-2,2 L-2,1 L0,1 Z " fill="#D6D8C8" transform="translate(56,53)"/>
<path d="M0,0 L1,0 L1,7 L0,7 L0,8 L-2,8 L-2,9 L-3,9 L-3,6 L-2,6 L-2,4 L-1,4 L-1,2 L0,2 Z " fill="#D7DCDC" transform="translate(114,43)"/>
<path d="M0,0 L11,0 L11,1 L3,1 L3,2 L1,2 L1,3 L0,3 L0,4 L-1,4 L-1,3 L-2,3 L-2,1 L0,1 Z " fill="#CCD0CC" transform="translate(19,34)"/>
<path d="M0,0 L2,0 L2,1 L3,1 L3,2 L2,2 L2,3 L4,3 L4,4 L3,4 L3,5 L1,5 L1,3 L-3,3 L-3,4 L-5,4 L-5,3 L-4,3 L-4,2 L-2,2 L-2,1 L0,1 Z " fill="#6F7A83" transform="translate(50,31)"/>
<path d="M0,0 L1,0 L1,1 L4,1 L4,2 L2,2 L2,5 L1,5 L1,10 L0,10 L0,4 L1,4 L1,3 L-2,3 L-2,1 L0,1 Z " fill="#516077" transform="translate(83,125)"/>
<path d="M0,0 L1,0 L1,2 L-1,2 L-1,3 L0,3 L0,4 L1,4 L1,5 L-1,5 L-1,4 L-3,4 L-3,5 L-4,5 L-4,6 L-5,6 L-5,5 L-7,5 L-7,4 L-5,4 L-5,3 L-4,3 L-4,2 L-2,2 L-2,1 L0,1 Z " fill="#6A7081" transform="translate(100,117)"/>
<path d="M0,0 L1,0 L1,1 L3,1 L3,2 L1,2 L1,3 L0,3 L0,4 L-2,4 L-2,5 L-4,5 L-4,6 L-5,6 L-5,5 L-6,5 L-6,4 L-4,4 L-4,2 L-1,2 L-1,1 L0,1 Z " fill="#D8DED6" transform="translate(109,109)"/>
<path d="M0,0 L1,0 L1,1 L3,1 L3,5 L5,5 L5,7 L3,7 L3,6 L1,6 L1,4 L0,4 L0,3 L-1,3 L-1,2 L0,2 Z " fill="#5B636E" transform="translate(19,106)"/>
<path d="M0,0 L1,0 L1,4 L2,4 L2,7 L3,7 L3,10 L2,10 L2,9 L0,9 L0,7 L1,7 L1,6 L0,6 L0,4 L-2,4 L-2,3 L-1,3 L-1,2 L0,2 Z " fill="#46546A" transform="translate(34,102)"/>
<path d="M0,0 L1,0 L1,1 L3,1 L3,2 L5,2 L5,5 L4,5 L4,7 L3,7 L3,4 L2,4 L2,6 L1,6 L1,3 L0,3 Z " fill="#DEDFD9" transform="translate(119,55)"/>
<path d="M0,0 L3,0 L3,1 L4,1 L4,2 L7,2 L7,3 L6,3 L6,4 L8,4 L8,5 L5,5 L5,4 L3,4 L3,3 L1,3 L1,2 L0,2 Z " fill="#CAD0CC" transform="translate(110,34)"/>
<path d="M0,0 L3,0 L3,1 L4,1 L4,2 L5,2 L5,3 L3,3 L3,5 L2,5 L2,4 L1,4 L1,3 L0,3 L0,2 L-3,2 L-3,1 L0,1 Z " fill="#D6D7C9" transform="translate(81,120)"/>
<path d="M0,0 L3,0 L3,1 L4,1 L4,2 L1,2 L1,3 L0,3 L0,2 L-4,2 L-4,3 L-8,3 L-8,2 L-6,2 L-6,1 L0,1 Z " fill="#E2E0DA" transform="translate(130,113)"/>
<path d="M0,0 L5,0 L5,2 L7,2 L7,3 L6,3 L6,4 L3,4 L3,1 L1,1 L1,2 L0,2 L0,3 L-2,3 L-2,2 L-1,2 L-1,1 L0,1 Z " fill="#BAC2BF" transform="translate(35,53)"/>
<path d="M0,0 L2,0 L2,1 L3,1 L3,0 L4,0 L4,2 L3,2 L3,3 L2,3 L2,4 L-3,4 L-3,2 L0,2 Z " fill="#545A67" transform="translate(110,53)"/>
<path d="M0,0 L5,0 L5,2 L4,2 L4,3 L3,3 L3,4 L1,4 L1,5 L-1,5 L-1,3 L1,3 L1,1 L0,1 Z " fill="#57626D" transform="translate(130,52)"/>
<path d="M0,0 L2,0 L2,1 L1,1 L1,2 L3,2 L3,3 L-1,3 L-1,4 L-2,4 L-2,6 L-1,6 L-1,7 L-2,7 L-2,8 L-3,8 L-3,7 L-4,7 L-4,5 L-3,5 L-3,3 L-2,3 L-2,2 L-1,2 L-1,1 L0,1 Z " fill="#6C7680" transform="translate(20,36)"/>
<path d="M0,0 L2,0 L2,1 L3,1 L3,0 L6,0 L6,1 L7,1 L7,4 L5,4 L5,3 L3,3 L3,2 L1,2 L1,1 L0,1 Z " fill="#CBCECF" transform="translate(53,117)"/>
<path d="M0,0 L2,0 L2,1 L5,1 L5,4 L4,4 L4,2 L2,2 L2,3 L3,3 L3,7 L1,7 L1,6 L2,6 L2,4 L1,4 L1,3 L0,3 Z " fill="#D8D6CA" transform="translate(55,64)"/>
</svg>
